<?xml version="1.0" encoding="utf-8"?>
<!-- Generator: Adobe Illustrator 15.0.2, SVG Export Plug-In . SVG Version: 6.00 Build 0)  -->
<!DOCTYPE svg PUBLIC "-//W3C//DTD SVG 1.1//EN" "http://www.w3.org/Graphics/SVG/1.1/DTD/svg11.dtd">
<svg version="1.1" id="Capa_1" xmlns="http://www.w3.org/2000/svg" xmlns:xlink="http://www.w3.org/1999/xlink" x="0px" y="0px"
	 width="1485.946px" height="554.294px" viewBox="0 0 1485.946 554.294" enable-background="new 0 0 1485.946 554.294"
	 xml:space="preserve">
<polygon fill="#965C9C" points="0,136.309 236.095,0 472.19,136.309 472.19,408.928 236.095,545.237 0,408.928 "/>
<polygon fill="#622280" points="28.999,151.03 236.595,31.176 444.191,151.03 444.191,390.742 236.595,510.598 28.999,390.742 "/>
<rect x="858.083" y="365.112" fill="#965C9C" width="360.789" height="40.838"/>
<path fill="#965C9C" d="M1483.958,283.405h-1.963h-41.936h-120.482c8.199-25.451,32.064-43.871,60.242-43.871l63.314,0.002
	c-10.131-13.087,9.646-33.706,0-40.838h-62.314c-58.059,0-105.125,47.066-105.125,105.126c0,6.989,0.703,13.812,2.004,20.419h4.408
	h38.148h119.133c-8.543,23.74-30.877,40.895-57.338,41.812v0.014h-0.531c-0.566,0.015-1.129,0.043-1.699,0.043
	s-1.133-0.028-1.699-0.043h-143.363l6,42.881h140.062c58.061,0,105.127-47.066,105.127-105.126
	C1485.946,296.837,1485.256,290.011,1483.958,283.405z"/>
<path fill="#622280" d="M1210.981,206.576h-23.452v40.838h23.452v159.289c0,28.365-18.379,52.422-43.871,60.958v52.685
	c3.361-1.826,7.217-3.488,11.668-4.914c42.367-13.564,73.039-53.264,73.039-100.131V206.576H1210.981z"/>
<rect x="886.256" y="67.425" fill="#E5A8C2" width="40.838" height="338.525"/>
<g>
	<path fill="#E5A8C2" d="M949.733,365.112h-202.11v40.838h245.028C973.364,405.95,949.733,382.3,949.733,365.112z"/>
</g>
<path fill="#F3B2CD" d="M1052.979,195.698c-58.061,0-105.127,47.066-105.127,105.126s47.066,105.126,105.127,105.126
	c24.215,0,46.514-8.192,64.287-21.95v44.95l40.84-23V300.824C1158.106,242.765,1111.038,195.698,1052.979,195.698z
	 M1051.977,365.114c-34.953,0-63.289-28.335-63.289-63.289s28.336-63.289,63.289-63.289c34.955,0,63.289,28.335,63.289,63.289
	S1086.932,365.114,1051.977,365.114z"/>
<path fill="#F3B2CD" d="M609.002,195.698c-58.061,0-105.127,47.066-105.127,105.126S550.942,405.95,609.002,405.95
	c24.215,0,46.514-8.192,64.287-21.95v44.95l40.84-23V300.824C714.129,242.765,667.061,195.698,609.002,195.698z M608,365.114
	c-34.953,0-63.289-28.335-63.289-63.289s28.336-63.289,63.289-63.289c34.955,0,63.289,28.335,63.289,63.289
	S642.956,365.114,608,365.114z"/>
<circle fill="#F5C5D9" cx="747.623" cy="385.531" r="20.419"/>
<rect x="727.204" y="261.037" fill="#F5C5D9" width="40.838" height="124.494"/>
<circle fill="#E5A8C2" cx="747.623" cy="261.037" r="20.419"/>
<rect x="747.623" y="240.618" fill="#E5A8C2" width="179.47" height="40.838"/>
<g>
	<path fill="#F3B2CD" d="M313.933,269.619c17.791-14.229,29.211-36.107,29.211-60.607c0-42.775-34.801-77.576-77.576-77.576
		c-24.5,0-46.381,11.42-60.607,29.211c-14.227-17.791-36.105-29.211-60.605-29.211c-42.776,0-77.577,34.801-77.577,77.576
		c0,24.5,11.419,46.379,29.211,60.607c-17.792,14.227-29.211,36.105-29.211,60.605c0,42.775,34.801,77.576,77.577,77.576
		c24.5,0,46.379-11.42,60.605-29.211c14.227,17.791,36.107,29.211,60.607,29.211c42.775,0,77.576-34.801,77.576-77.576
		C343.144,305.725,331.724,283.846,313.933,269.619z M204.96,313.256c-24.061,0-43.637-19.576-43.637-43.637
		c0-24.062,19.576-43.637,43.637-43.637s43.637,19.574,43.637,43.637C248.597,293.68,229.021,313.256,204.96,313.256z
		 M144.355,165.375c18.979,0,35.158,12.186,41.15,29.139c-27.172,7.043-48.607,28.479-55.65,55.648
		c-16.953-5.99-29.137-22.17-29.137-41.15C100.718,184.951,120.292,165.375,144.355,165.375z M144.355,373.861
		c-24.062,0-43.637-19.576-43.637-43.637c0-18.979,12.185-35.158,29.137-41.15c7.043,27.17,28.479,48.605,55.65,55.648
		C179.513,361.678,163.333,373.861,144.355,373.861z M265.568,373.861c-18.98,0-35.158-12.184-41.15-29.139
		c27.17-7.043,48.605-28.479,55.648-55.648c16.953,5.992,29.139,22.172,29.139,41.15
		C309.205,354.285,289.628,373.861,265.568,373.861z M280.066,250.162c-7.043-27.17-28.479-48.605-55.648-55.648
		c5.992-16.953,22.17-29.139,41.15-29.139c24.061,0,43.637,19.576,43.637,43.637C309.205,227.992,297.019,244.172,280.066,250.162z"
		/>
	<path fill="#965C9C" d="M301.933,272.619c17.791-14.229,29.211-36.107,29.211-60.607c0-42.775-34.801-77.576-77.576-77.576
		c-24.5,0-46.381,11.42-60.607,29.211c-14.227-17.791-36.105-29.211-60.605-29.211c-42.776,0-77.577,34.801-77.577,77.576
		c0,24.5,11.419,46.379,29.211,60.607c-17.792,14.227-29.211,36.105-29.211,60.605c0,42.775,34.801,77.576,77.577,77.576
		c24.5,0,46.379-11.42,60.605-29.211c14.227,17.791,36.107,29.211,60.607,29.211c42.775,0,77.576-34.801,77.576-77.576
		C331.144,308.725,319.724,286.846,301.933,272.619z M192.96,316.256c-24.061,0-43.637-19.576-43.637-43.637
		c0-24.062,19.576-43.637,43.637-43.637s43.637,19.574,43.637,43.637C236.597,296.68,217.021,316.256,192.96,316.256z
		 M132.355,168.375c18.979,0,35.158,12.186,41.15,29.139c-27.172,7.043-48.607,28.479-55.65,55.648
		c-16.953-5.99-29.137-22.17-29.137-41.15C88.718,187.951,108.292,168.375,132.355,168.375z M132.355,376.861
		c-24.062,0-43.637-19.576-43.637-43.637c0-18.979,12.185-35.158,29.137-41.15c7.043,27.17,28.479,48.605,55.65,55.648
		C167.513,364.678,151.333,376.861,132.355,376.861z M253.568,376.861c-18.98,0-35.158-12.184-41.15-29.139
		c27.17-7.043,48.605-28.479,55.648-55.648c16.953,5.992,29.139,22.172,29.139,41.15
		C297.205,357.285,277.628,376.861,253.568,376.861z M268.066,253.162c-7.043-27.17-28.479-48.605-55.648-55.648
		c5.992-16.953,22.17-29.139,41.15-29.139c24.061,0,43.637,19.576,43.637,43.637C297.205,230.992,285.019,247.172,268.066,253.162z"
		/>
</g>
<polygon fill="#965C9C" points="472.19,408.928 472.19,136.309 236.095,0 236.095,545.237 "/>
<g>
	<path fill="#803588" d="M281.454,357.335v-36.748L385.87,270.24l-104.416-50.508v-36.424l10-6.5l133.592,77.891v31.244
		l-133.592,75.392L281.454,357.335z"/>
</g>
<g>
	<path fill="#F5C5D9" d="M291.454,361.335v-38.966l110.716-53.384L291.454,215.43v-38.621l152.256,75.698v33.129L291.454,361.335z"
		/>
</g>
<circle fill="#E5A8C2" cx="906.164" cy="67.425" r="20.419"/>
<circle fill="#622280" cx="1187.529" cy="226.995" r="20.419"/>
<circle fill="#965C9C" cx="1443.133" cy="219.117" r="20.419"/>
</svg>
