<?xml version="1.0" encoding="utf-8"?>
<!-- Generator: Adobe Illustrator 16.0.3, SVG Export Plug-In . SVG Version: 6.00 Build 0)  -->
<!DOCTYPE svg PUBLIC "-//W3C//DTD SVG 1.1//EN" "http://www.w3.org/Graphics/SVG/1.1/DTD/svg11.dtd">
<svg version="1.1" id="Capa_1" xmlns="http://www.w3.org/2000/svg" xmlns:xlink="http://www.w3.org/1999/xlink" x="0px" y="0px"
   width="595.28px" height="841.89px" viewBox="0 0 595.28 841.89" enable-background="new 0 0 595.28 841.89" xml:space="preserve">
<rect x="227.555" y="463.55" fill="#995CA2" width="185.514" height="20.998"/>
<path fill="#995CA2" d="M549.373,421.537h-1.009h-21.563h-61.951c4.216-13.086,16.487-22.558,30.976-22.558l32.556,0.001
  c-5.209-6.729,4.96-17.331,0-20.999h-32.041c-29.854,0-54.055,24.201-54.055,54.055c0,3.594,0.361,7.102,1.03,10.499h2.267h19.616
  h61.257c-4.393,12.207-15.877,21.027-29.482,21.5v0.007H496.7c-0.291,0.007-0.58,0.021-0.874,0.021
  c-0.293,0-0.582-0.015-0.873-0.021h-73.717l3.086,22.049h72.019c29.854,0,54.055-24.201,54.055-54.055
  C550.396,428.443,550.041,424.934,549.373,421.537z"/>
<path fill="#662483" d="M409.012,382.032h-12.059v20.999h12.059v81.905c0,14.585-9.45,26.954-22.559,31.344v27.09
  c1.729-0.939,3.711-1.794,6-2.526c21.785-6.976,37.556-27.388,37.556-51.486V382.032H409.012z"/>
<rect x="242.042" y="310.481" fill="#E6A9C5" width="20.999" height="174.066"/>
<g>
  <path fill="#E6A9C5" d="M274.681,463.55H170.757v20.998h125.991C286.832,484.548,274.681,472.388,274.681,463.55z"/>
</g>
<path fill="#F5B3D1" d="M327.769,376.438c-29.854,0-54.055,24.201-54.055,54.055s24.201,54.055,54.055,54.055
  c12.451,0,23.917-4.212,33.056-11.286v23.112l21-11.826v-54.055C381.824,400.64,357.622,376.438,327.769,376.438z M327.253,463.551
  c-17.972,0-32.542-14.569-32.542-32.543c0-17.973,14.57-32.542,32.542-32.542c17.974,0,32.543,14.57,32.543,32.542
  C359.796,448.981,345.227,463.551,327.253,463.551z"/>
<path fill="#F5B3D1" d="M99.48,376.438c-29.854,0-54.055,24.201-54.055,54.055s24.201,54.055,54.055,54.055
  c12.451,0,23.917-4.212,33.056-11.286v23.112l21-11.826v-54.055C153.536,400.64,129.333,376.438,99.48,376.438z M98.965,463.551
  c-17.973,0-32.542-14.569-32.542-32.543c0-17.973,14.57-32.542,32.542-32.542c17.974,0,32.542,14.57,32.542,32.542
  C131.508,448.981,116.939,463.551,98.965,463.551z"/>
<circle fill="#F7C5DD" cx="170.758" cy="474.049" r="10.499"/>
<rect x="160.258" y="410.035" fill="#F7C5DD" width="20.999" height="64.014"/>
<circle fill="#E6A9C5" cx="170.758" cy="410.035" r="10.499"/>
<rect x="170.757" y="399.536" fill="#E6A9C5" width="92.282" height="20.998"/>
<circle fill="#E6A9C5" cx="252.278" cy="310.481" r="10.499"/>
<circle fill="#662483" cx="396.953" cy="392.531" r="10.5"/>
<circle fill="#995CA2" cx="528.383" cy="388.48" r="10.499"/>
</svg>